<svg width="2732" height="2732" viewBox="0 0 2732 2732" fill="none" xmlns="http://www.w3.org/2000/svg">
  <rect width="2732" height="2732" fill="#F3F4F6"/>
  
  <g transform="translate(1110, 1110) scale(1.0)">
    <rect width="512" height="512" rx="80" fill="#F3F4F6"/>
    <rect x="20" y="20" width="472" height="472" rx="60" stroke="#D1D5DB" stroke-width="20"/>
    
    <!-- Document Icon -->
    <path d="M180 120H300L360 180V320H180V120Z" fill="#EA580C" fill-opacity="0.1" stroke="#EA580C" stroke-width="12" stroke-linejoin="round"/>
    <path d="M300 120V180H360" stroke="#EA580C" stroke-width="12" stroke-linejoin="round"/>
    
    <!-- Stylized PP -->
    <g transform="translate(140, 180) scale(1.2)">
      <path d="M20 100V20H80C102.091 20 120 37.9086 120 60C120 82.0914 102.091 100 80 100H20Z" fill="url(#paint0_linear)" stroke="#9A3412" stroke-width="8"/>
      <path d="M80 100V20H140C162.091 20 180 37.9086 180 60C180 82.0914 162.091 100 140 100H80Z" fill="url(#paint1_linear)" stroke="#9A3412" stroke-width="8" transform="translate(30, 20)"/>
    </g>
    
    <!-- Text -->
    <text x="256" y="440" text-anchor="middle" font-family="Arial, sans-serif" font-weight="bold" font-size="64" fill="#0F172A">PINTAR <tspan fill="#EA580C">PDF</tspan></text>
  </g>
  
  <defs>
    <linearGradient id="paint0_linear" x1="20" y1="20" x2="120" y2="100" gradientUnits="userSpaceOnUse">
      <stop stop-color="#FB923C"/>
      <stop offset="1" stop-color="#EA580C"/>
    </linearGradient>
    <linearGradient id="paint1_linear" x1="80" y1="20" x2="180" y2="100" gradientUnits="userSpaceOnUse">
      <stop stop-color="#F97316"/>
      <stop offset="1" stop-color="#C2410C"/>
    </linearGradient>
  </defs>
</svg>
